# xmcd CD database file
#
# Track frame offsets:
#	150
#	30425
#	45202
#	79587
#	115427
#	130022
#	132880
#	144895
#	160697
#	166277
#	182805
#	190047
#	203280
#	226497
#	237634
#	265415
#
# Disc length: 3755 seconds
#
# Revision: 0
# Processed by: cddbd v1.5.2PL0 Copyright (c) Steve Scherf et al.
# Submitted via: CDex 1.70beta2
#
DISCID=c70ea910
DTITLE=Piano Seven - Piano Seven invite Jacques Bolognesi - François Guye
DYEAR=1996
DGENRE=Jazz
TTITLE0=Circus
TTITLE1=Une Valse
TTITLE2=Baiao
TTITLE3=Dolce
TTITLE4=Tête Buissonnante
TTITLE5=Interlude
TTITLE6=S'love
TTITLE7=Tango fugado - Partie I
TTITLE8=Tango fugado - Partie II - Accordéon solo
TTITLE9=Tango fugado - Partie III - Milonga
TTITLE10=Tango fugado - Partie IV - Condenza et finale
TTITLE11=Rocking chair
TTITLE12=One for Flo, two for Fab
TTITLE13=Marionettistes
TTITLE14=Lied phrygien
TTITLE15=Skord
EXTD=YEAR: 1996
EXTT0=
EXTT1=
EXTT2=
EXTT3=
EXTT4=
EXTT5=
EXTT6=
EXTT7=
EXTT8=
EXTT9=
EXTT10=
EXTT11=
EXTT12=
EXTT13=
EXTT14=
EXTT15=
PLAYORDER=
